<?xml version='1.0' encoding='utf-8'?>
<svg xmlns="http://www.w3.org/2000/svg" enable-background="new 0 0 2474 1454.6182" version="1.1" viewBox="0 0 2474 1454.6182">
	<linearGradient id="a" x1="1235.2" x2="1235.2" y1="1333.8" y2="89.929" gradientUnits="userSpaceOnUse">
		<stop stop-color="#C7C7C7" offset="0"/>
		<stop stop-color="#ccc" offset=".0385"/>
		<stop stop-color="#E3E3E3" offset=".231"/>
		<stop stop-color="#F3F3F3" offset=".4405"/>
		<stop stop-color="#FCFCFC" offset=".6773"/>
		<stop stop-color="#fff" offset="1"/>
	</linearGradient>
	<path d="m2311.9 1273.7c8.3901 32.92-8.0999 60.18-36.75 60.18l-2075.9-0.0601c-29.19 0-48.03-27.53-41.94-60.76l210.59-1148.4c3.54-19.29 24.3-34.83 46.18-34.71l1559.2 8.63c21.57 0.12 43.18 15.78 48.07 34.97l290.56 1140.1zm-156.93-147.27c0-12.92-10.58-23.5-23.5-23.5h-898c-6.47 0-12.34 2.6399-16.6 6.8999s-6.9 10.14-6.9 16.6c0 12.93 10.57 23.5 23.5 23.5h898c6.46 0 12.33-2.64 16.59-6.9s6.9099-10.14 6.9099-16.6zm-36-99.78c0-12.93-10.58-23.5-23.5-23.5h-862c-6.47 0-12.34 2.64-16.6 6.9s-6.9 10.14-6.9 16.6c0 12.92 10.57 23.5 23.5 23.5h862c6.46 0 12.33-2.64 16.59-6.9s6.9099-10.14 6.9099-16.6zm-12 197.34c0-12.92-10.58-23.5-23.5-23.5h-850c-6.47 0-12.34 2.64-16.6 6.9s-6.9 10.14-6.9 16.6c0 12.93 10.57 23.5 23.5 23.5h850c6.46 0 12.33-2.64 16.59-6.9s6.9099-10.14 6.9099-16.6zm-20-296.67c0-12.93-10.58-23.5-23.5-23.5h-830c-6.47 0-12.34 2.64-16.6 6.9s-6.9 10.13-6.9 16.6c0 12.92 10.57 23.5 23.5 23.5h830c6.46 0 12.33-2.65 16.59-6.91s6.9099-10.13 6.9099-16.59zm-28-103.56c0-12.92-10.58-23.5-23.5-23.5h-803c-6.47 0-12.34 2.65-16.6 6.91s-6.9 10.13-6.9 16.59c0 12.93 10.57 23.5 23.5 23.5h803c6.46 0 12.33-2.64 16.59-6.9s6.9099-10.13 6.9099-16.6zm-27-98.56c0-12.92-10.58-23.5-23.5-23.5h-775c-6.47 0-12.34 2.65-16.6 6.91s-6.9 10.13-6.9 16.59c0 12.93 10.57 23.5 23.5 23.5h775c6.46 0 12.33-2.64 16.59-6.9s6.91-10.13 6.91-16.6zm-30-97.55c0-12.93-10.58-23.5-23.5-23.5h-745c-6.47 0-12.34 2.64-16.6 6.9s-6.9 10.14-6.9 16.6c0 12.92 10.57 23.5 23.5 23.5h745c6.46 0 12.33-2.64 16.59-6.9s6.91-10.14 6.91-16.6zm-71.94-153.9l-43.5-227.99h-413.98l39 227.99h418.48zm-808.06 780.4v-651h-667l-136 651h803z" fill="url(#a)"/>
	<path d="m2383.5 1340.4c8.99 33.81-7.3101 61.83-36.34 61.84l-2216 0.61c-29.62 0.01-48.34-28.29-41.7-62.45l244.07-1254.6c3.68-18.9 24.38-34.13 46.04-34l1625.2 9.26c21.35 0.13 42.86 15.47 47.86 34.28l330.92 1245.1zm-108.28-6.54c28.65 0 45.14-27.26 36.75-60.18l-290.56-1140.1c-4.89-19.19-26.5-34.85-48.07-34.97l-1559.2-8.63c-21.88-0.12-42.64 15.42-46.18 34.71l-210.59 1148.4c-6.09 33.23 12.75 60.76 41.94 60.76l2075.9 0.0601z" fill="#828282"/>
	<path d="m2131.5 1102.9c12.92 0 23.5 10.58 23.5 23.5 0 6.46-2.6499 12.34-6.9099 16.6s-10.13 6.9-16.59 6.9h-898c-12.93 0-23.5-10.57-23.5-23.5 0-6.4601 2.64-12.34 6.9-16.6s10.13-6.8999 16.6-6.8999h898z" fill="#ccc"/>
	<path d="m2095.5 1003.1c12.92 0 23.5 10.57 23.5 23.5 0 6.46-2.6499 12.34-6.9099 16.6s-10.13 6.9-16.59 6.9h-862c-12.93 0-23.5-10.58-23.5-23.5 0-6.46 2.64-12.34 6.9-16.6s10.13-6.9 16.6-6.9h862z" fill="#ccc"/>
	<path d="m2083.5 1200.5c12.92 0 23.5 10.58 23.5 23.5 0 6.46-2.6499 12.34-6.9099 16.6s-10.13 6.9-16.59 6.9h-850c-12.93 0-23.5-10.57-23.5-23.5 0-6.46 2.64-12.34 6.9-16.6s10.13-6.9 16.6-6.9h850z" fill="#ccc"/>
	<path d="m2063.5 903.79c12.92 0 23.5 10.57 23.5 23.5 0 6.46-2.6499 12.33-6.9099 16.59s-10.13 6.91-16.59 6.91h-830c-12.93 0-23.5-10.58-23.5-23.5 0-6.47 2.64-12.34 6.9-16.6 4.26-4.2599 10.13-6.9 16.6-6.9h830z" fill="#ccc"/>
	<path d="m2035.5 800.23c12.92 0 23.5 10.58 23.5 23.5 0 6.47-2.6499 12.34-6.9099 16.6-4.2601 4.26-10.13 6.9-16.59 6.9h-803c-12.93 0-23.5-10.57-23.5-23.5 0-6.46 2.64-12.33 6.9-16.59s10.13-6.91 16.6-6.91h803z" fill="#ccc"/>
	<path d="m2008.5 701.67c12.92 0 23.5 10.58 23.5 23.5 0 6.47-2.65 12.34-6.91 16.6s-10.13 6.9-16.59 6.9h-775c-12.93 0-23.5-10.57-23.5-23.5 0-6.46 2.64-12.33 6.9-16.59s10.13-6.91 16.6-6.91h775z" fill="#ccc"/>
	<path d="m1978.5 604.12c12.92 0 23.5 10.57 23.5 23.5 0 6.46-2.65 12.34-6.91 16.6s-10.13 6.9-16.59 6.9h-745c-12.93 0-23.5-10.58-23.5-23.5 0-6.46 2.64-12.34 6.9-16.6s10.13-6.9 16.6-6.9h745z" fill="#ccc"/>
	<polygon points="1886.6 245.73 1930.1 473.72 1511.6 473.72 1472.6 245.73" fill="#ccc"/>
	<path d="m1122 603.12v651h-803l136-651h667zm-15 546.78c0-21.49-12.19-40.27-30-49.76v-449.02h-582l-81.42 442.84c-12.81 1.55-24.32 7.4401-33.03 16.14-10.21 10.22-16.55 24.3-16.55 39.8 0 21.54 12.25 40.37 30.13 49.84l-0.13 0.72h1.54c7.5 3.71 15.93 5.8 24.82 5.8h630.28c8.89 0 17.32-2.0901 24.82-5.8h1.54v-0.79c4.97-2.6499 9.5-6.0199 13.45-9.97 10.21-10.21 16.55-24.3 16.55-39.8z" fill="#ccc"/>
	<path d="m1077 1100.1c17.81 9.49 30 28.27 30 49.76 0 15.5-6.34 29.59-16.55 39.8-3.95 3.9501-8.48 7.3201-13.45 9.97v-99.53z" fill="#F2F2F2"/>
	<path d="m1077 1199.7v0.79h-1.54c0.52-0.2499 1.03-0.5199 1.54-0.79z" fill="#E6E6E6"/>
	<path d="m1077 1100.1v99.53c-0.51 0.27-1.02 0.54-1.54 0.79h-679.92c-0.48-0.23-0.95-0.47-1.41-0.72l19.45-105.78c2.22-0.27 4.49-0.41 6.78-0.41h630.28c9.5101 0 18.48 2.3901 26.36 6.5901zm-16.89 50.19c0-14.55-11.91-26.46-26.47-26.46h-598.03c-7.28 0-13.9 2.98-18.7 7.77-4.79 4.7999-7.77 11.42-7.77 18.69 0 14.56 11.91 26.47 26.47 26.47h598.03c7.28 0 13.9-2.98 18.69-7.7799 4.8001-4.79 7.7801-11.41 7.7801-18.69z" fill="#F2F2F2"/>
	<path d="m1077 651.12v449.02c-7.88-4.2001-16.85-6.5901-26.36-6.5901h-630.28c-2.29 0-4.56 0.14-6.78 0.41l81.42-442.84h582z" fill="#E6E6E6"/>
	<path d="m395.54 1200.5h679.92c-7.5 3.71-15.93 5.8-24.82 5.8h-630.28c-8.89 0-17.32-2.0901-24.82-5.8z" fill="#F2F2F2"/>
	<path d="m1033.6 1123.9c14.56 0 26.47 11.91 26.47 26.46 0 7.28-2.98 13.9-7.78 18.69-4.7899 4.7999-11.41 7.7799-18.69 7.7799h-598.03c-14.56 0-26.47-11.91-26.47-26.47 0-7.27 2.98-13.89 7.77-18.69 4.8-4.79 11.42-7.77 18.7-7.77h598.03z" fill="#fff"/>
	<path d="m413.58 1094l-19.45 105.78c-17.88-9.47-30.13-28.3-30.13-49.84 0-15.5 6.34-29.58 16.55-39.8 8.71-8.7 20.22-14.59 33.03-16.14z" fill="#F2F2F2"/>
	<path d="m395.54 1200.5h-1.54l0.13-0.72c0.46 0.25 0.93 0.49 1.41 0.72z" fill="#E6E6E6"/>
	<path d="m836.72 285.58c-0.381 3.1259-1.2255 6.2815-1.0282 9.3705 0.259 4.0549-2.072 3.6535-4.6614 3.6513-3.483-3e-3 -2.0981-2.4076-2.3446-4.1936-0.9538-6.9112-0.9413-14.041-4.9357-20.258-4.1018-6.3849-9.8347-9.9709-17.349-10.606-22.117-1.8702-44.281-0.4872-66.42-0.8568-8.7093-0.1454-8.5419-5e-3 -9.491 8.569-2.7103 24.484-5.482 48.962-8.4719 73.414-0.4348 3.5561 0.5366 4.243 3.7565 4.212 16.655-0.1606 33.318 0.1226 49.965-0.2853 18.566-0.455 28.001-9.0083 30.745-27.552 0.4752-3.2118 1.6251-3.5759 4.3046-3.5206 3.601 0.0744 1.8757 2.4288 1.7238 3.8001-1.8762 16.932-4.1016 33.831-5.6503 50.792-0.4074 4.462-1.8199 8.8848-0.5853 13.676 1.1281 4.3777-3.289 7.7729-7.7614 6.7906-1.3604-1.5649-2.1143-3.2086-1.0837-5.3097 0.975-1.9877 0.8141-4.0811 0.219-6.1584-0.4206-13.65-9.5969-18.681-20.562-19.613-10.084-0.958-20.193-0.3562-30.286-0.3596-8.7501-0.0029-17.523-0.6624-26.257 0.4397-1.6437 8.8228-3.057 17.672-3.1073 26.681-0.9223 2.7032 2.5008 5.9049-0.9542 8.3176-0.2155 0.1684-0.2382 0.3596-0.0681 0.5738-1.0596 2.3864 2.1524 5.2683-0.8617 7.428-1.8627 3.071-0.7301 6.4821-1.1038 9.7222-0.9241 2.6889 2.4776 5.8759-0.9528 8.2763-0.2137 0.1873-0.2385 0.397-0.0744 0.629 2.0897 7.1732 0.5333 14.341 0.0608 21.528-0.3283 4.9932 2.4276 8.1629 7.3766 9.0928 0.6552 0.1231-0.1638 0.0637 0.4944 0.0593 21.628-0.1435 43.29 1.546 64.87-1.0265 7.5276-0.8974 13.906-4.5508 19.458-9.5381 6.3253-5.6809 12.033-11.992 17.553-18.444 1.2254-1.4324 2.6744-2.297 4.1179-3.3056 4.1068-7.2722 4.1068-7.2722 10.921-6.7083-0.622 1.8669-1.2245 3.6753-1.827 5.4838-6.8891 14.755-13.902 29.455-20.572 44.309-1.4773 3.2903-3.2717 4.2552-6.7241 4.2487-52.815-0.1003-105.63-0.0527-158.45-0.1498-1.6412-3e-3 -4.6552 1.6755-4.7012-2.3005-0.0441-3.8053 2.4658-3.6084 5.0795-3.5741 2.3283 0.0306 4.6709-0.0181 6.987-0.2414 12.768-1.2306 19.672-7.1255 21.368-19.744 3.3049-24.58 6.1249-49.227 8.9959-73.864 3.2761-28.113 6.4342-56.24 9.526-84.374 0.4894-4.4532 0.6276-8.9846 0.4563-13.462-0.2933-7.6692-3.5032-11.914-11.036-13.296-11.362-2.0844-22.921-2.2624-34.255 0.0853-7.8618 1.6284-13.168 6.7618-15.576 14.653-4.1006 13.434-5.6047 27.37-7.9568 41.133-8.8314 51.672-17.481 103.37-26.244 155.06-0.2523 1.4882-0.0419 3.4919-2.4925 3.6832-2.4872 0.1942-4.2494-0.3199-5.776-2.7293-8.3762-13.22-16.982-26.293-25.503-39.421-27.739-42.736-55.475-85.474-83.22-128.21-0.889-1.3694-1.8655-2.6822-3.4739-4.984-1.8732 10.854-3.603 20.705-5.2698 30.566-5.8521 34.622-11.691 69.247-17.512 103.87-0.8557 5.0896-1.6164 10.19-1.5981 15.382 0.0339 9.6358 4.149 14.425 13.764 15.534 3.2977 0.3804 6.6541 0.2298 9.9796 0.4016 1.3524 0.0699 3.4094-0.5042 3.0167 2.0034-0.2595 1.6574-0.0398 3.9274-2.814 3.8806-0.8326-0.0141-1.6659 0.0209-2.4988 0.0209-22.159 0.0013-44.318 0.0403-66.477-0.0882-1.4589-0.0085-4.3626 1.657-4.332-2.0756 0.0242-2.9516 1.3716-4.0668 4.3627-3.8244 2.6406 0.2141 5.331 0.0271 7.985-0.174 10.967-0.8311 18.001-6.2189 21.078-16.736 4.5458-15.54 5.98-31.698 8.9562-47.552 0.796-4.2401 1.289-8.537 1.9212-12.808 2.3622-13.665 4.7972-27.318 7.0635-40.999 1.8289-11.041 3.3843-22.127 5.1922-33.171 1.4304-8.7379 3.0649-17.442 4.5984-26.163 0.6125-3.4836 0.2401-6.4761-1.877-9.7526-6.0922-9.429-14.413-15.201-25.23-17.776-2.0528-0.4887-3.9686 0.0676-5.924-0.1619-1.961-0.2301-4.6196 1.2769-4.6118-3.047 0.0069-3.8404 1.6923-3.802 4.4287-3.7917 16.831 0.0635 33.665 0.168 50.493-0.0714 3.8588-0.0549 5.9444 1.2515 7.9776 4.4115 32.98 51.258 66.084 102.44 99.168 153.63 0.9728 1.5053 2.0352 2.9527 3.6545 5.2918 2.132-12.338 4.1339-23.714 6.059-35.104 5.2151-30.855 10.437-61.71 15.55-92.582 0.7595-4.586 1.2742-9.2645 1.3185-13.906 0.084-8.8103-3.71-13.116-12.275-14.906-3.7928-0.7924-7.6108-0.7501-11.442-0.8109-1.3398-0.0213-3.3055 0.5638-3.0209-1.9999 0.199-1.7925 0.0612-3.8657 2.7678-3.8908 1.1664-0.0108 2.3328-0.0273 3.4991-0.0273 77.325-0.0013 154.65 0.0526 231.98-0.1246 5.0528-0.0116 6.1967 1.4916 5.7751 6.1707-0.8621 9.5735-1.2697 19.188-1.8646 28.786z" fill="#666"/>
	<path d="m939.71 411.25c0.0712-0.275-0.0074-0.4971-0.2357-0.6663-3.1346-3.0502-5.6531-6.3535-4.5756-11.135-1.6956-1.1844-0.8267-3.5796-2.299-4.8694-3.2423-2.6204-4.2721-6.112-3.9857-10.122-7.2395-17.506-14.456-35.021-21.726-52.514-6.4279-15.467-12.916-30.909-19.377-46.362-2.6669-6.4504-4.9112-13.076-9.0027-18.878-4.5015-6.3833-10.85-8.9569-18.284-9.1276-2.7188-0.0624-4.3063-0.179-4.4789-3.5211-0.1757-3.4009 1.6592-3.3268 4.0042-3.324 24.331 0.0285 48.661 0.0272 72.992 0.0017 2.1666-0.0023 3.7937 0.0379 3.917 3.0293 0.1331 3.23-1.7537 2.8735-3.7947 2.9732-1.9859 0.097-3.9925 0.308-5.9315 0.7344-8.2914 1.8235-12.211 7.657-10.152 15.865 1.3713 5.4651 3.2849 10.834 5.3998 16.066 16.897 41.802 33.9 83.562 50.876 125.33 0.2469 0.6075 0.5689 1.1844 0.8933 1.8529 2.1603-0.6526 1.7458-2.7031 2.1447-4.0596 9.2433-31.443 18.349-62.927 27.604-94.367 0.8043-2.7321 0.8459-5.0827-0.3114-7.6732-5.0881-11.388-8.9758-23.286-14.655-34.429-5.6382-11.063-13.496-19.009-26.822-19.301-2.5848-0.0565-2.2992-1.6964-2.4359-3.3661-0.2003-2.4456 1.2584-2.6608 3.1305-2.6518 7.1657 0.0346 14.332 0.0094 21.498 0.0092 18.665-5e-4 37.329-0.0116 55.994 0.0194 1.8677 0.0031 4.1946-0.664 4.3691 2.5453 0.1136 2.0872 0.0181 3.5746-2.7365 3.4194-2.9877-0.1682-5.9779-0.0281-8.9453 0.6329-7.329 1.6326-10.784 5.9548-10.503 13.492 0.2136 5.7409 1.9486 11.163 4.0631 16.408 14.494 35.953 29.081 71.868 43.652 107.79 2.9329 7.2307 5.9242 14.438 8.8868 21.652 1.8788-0.6483 1.613-2.2288 1.9558-3.4132 12.026-41.549 24.038-83.103 35.999-124.67 1.519-5.2788 2.7809-10.637 2.861-16.184 0.0996-6.9004-3.3857-11.745-9.9811-13.806-3.8405-1.2003-7.8242-1.7578-11.815-1.8152-2.7786-0.0399-3.2979-1.3401-3.3187-3.7067-0.0233-2.6541 1.7244-2.3678 3.3722-2.3683 19.498-0.0066 38.996 0.0266 58.494-0.0416 2.4009-0.0084 3.3514 0.8225 3.1187 3.1947-0.1688 1.7182 0.5747 3.8447-2.49 3.6969-12.292-0.593-18.122 7.2758-21.716 17.337-7.3778 20.654-12.41 42.026-18.762 62.999-4.3467 14.352-8.3545 28.807-12.484 43.224-0.3135 1.094-0.3911 2.2555-0.5784 3.3857-5.6584 19.12-11.335 38.234-16.968 57.361-2.7251 9.2531-5.3506 18.535-8.0621 27.792-0.5779 1.9733-0.6437 4.1819-3.8329 4.2412-3.04 0.0565-4.3079-1.1374-5.4089-3.819-17.751-43.235-35.605-86.427-53.458-129.62-0.6122-1.4814-0.8215-3.2132-2.6914-4.6146-0.5585 1.6494-1.1045 3.1061-1.5477 4.5934-12.728 42.714-25.426 85.437-38.226 128.13-0.6283 2.0958-0.2394 5.0559-4.0547 5.3333-3.8447 0.2796-4.2551-2.3863-5.2559-4.7536-6.1451-14.535-12.273-29.076-18.407-43.616-0.342-0.6614-0.684-1.3227-1.026-1.984-3.5579-3.3454-4.9254-7.5593-4.8896-12.33z" fill="#666"/>
	<path d="m1305.7 289.58c0.0426 8.2957 1.6647 16.438 2.402 24.666 0.0591 0.6596 0.4045 1.3417 0.2987 1.9588-0.2927 1.7055 1.5845 4.2129-1.6263 4.8965-2.8531 0.6075-4.1176-0.751-4.7876-3.5091-1.9688-8.1033-4.6075-16.029-8.624-23.347-13.036-23.749-33.337-35.672-60.314-35.522-16.091 0.0899-29.077 10.781-31.856 25.205-1.9529 10.138 1.5858 18.689 8.4016 26.037 5.1398 5.5408 11.408 9.6842 17.726 13.73 14.602 9.3513 30.258 16.772 45.529 24.904 12.902 6.8708 26.053 13.37 37.27 23.002 16.032 13.768 24.535 30.881 23.469 52.308-0.0743 1.4949-0.0598 2.9942-0.0867 4.4913-6.0148 24.009-21.222 38.698-45.347 43.688-14.716 3.044-29.471 2.1572-43.966-2.0487-9.0991-2.6402-18.178-5.3602-27.327-7.8146-9.0865-2.4375-13.203 0.7128-13.351 8.6666-0.0408 2.1964-1.1207 2.6857-3.1276 2.8199-2.7959 0.1871-3.3418-1.3359-3.5774-3.5699-1.379-13.074-2.8016-26.144-4.2194-39.214-0.9872-9.0991-2.0673-18.189-2.9146-27.301-0.1508-1.6212-1.6147-4.1469 1.787-4.7038 3.062-0.5013 4.0098 1.2254 4.7424 3.7431 2.4669 8.4774 5.5115 16.75 9.7041 24.543 13.629 25.332 48.796 40.054 76.419 32.039 21.217-6.1559 30.243-27.482 19.544-46.772-8.0696-14.55-21.595-22.496-36.291-28.844-19.381-11.088-39.694-20.549-58.176-33.2-14.618-10.006-25.55-22.679-30.049-40.392-4.7739-18.795 0.3848-34.888 13.149-48.5 10.676-11.384 24.994-15.174 40.187-15.846 14.078-0.6231 27.344 2.9503 40.28 8.1209 3.3903 1.3551 6.7848 2.7891 10.301 3.7222 7.2922 1.9353 10.91-0.3999 12.811-7.7392 0.4846-1.8712-0.056-4.2556 3.4467-4.2966 3.5693-0.0418 3.0818 2.3149 3.3113 4.2137 1.3103 10.84 2.6106 21.683 3.6527 32.55 0.2391 2.4932 0.6182 4.9056 1.2066 7.3132z" fill="#666"/>
</svg>