<?xml version="1.0" encoding="UTF-8"?>
<svg version="1.1" viewBox="0 0 744.09 1052.4" xmlns="http://www.w3.org/2000/svg">
 <g transform="matrix(.097273 0 0 .097273 391.6 377.33)" fill="#666">
  <path d="m193.32 399.83c145.46-102.71-38.576-325.59-75.199-157.6 202.49-66.165-89.77 191.68 75.199 157.6zm-26.4 99.999c140.07-92.118-139.85-92.219 0 0z" fill="#666"/>
 </g>
 <g fill="#b3b3b3">
  <g transform="matrix(.41023 0 0 .41023 372.35 37.189)">
   <path d="m193.32 399.83c-9.3297-71.371 105.41-125.1 40.599-196-27.203-31.289-147.2-35.462-120.08 23.48 5.566 27.931 97.166-24.28 77.219 46.413-14.594 31.648-87.394 117.09-27.921 126.1h30.184zm-26.4 99.999c91.367-14.515-22.203-130.98-35.2-36.4-1.0489 19.31 15.31 37.639 35.2 36.4z" fill="#b3b3b3"/>
  </g>
  <g transform="matrix(.2438 0 0 .2438 216.11 122.66)">
   <path d="m193.32 399.83c29.292-74.746 115.58-232.04-41.587-216.15-76.872-1.2235-36.85 90.415 21.781 48.781 64.029 40.704-111.58 185.19 18.113 167.37h1.6931zm-26.4 99.999c117.74-57.858-98.598-106.85-14.781-2.875l14.781 2.875z" fill="#b3b3b3"/>
  </g>
  <g transform="matrix(.2438 0 0 .2438 514.4 161.23)">
   <path d="m193.32 399.83c29.292-74.746 115.58-232.04-41.587-216.15-76.874-1.2193-36.847 90.406 21.781 48.781 64.037 40.697-111.57 185.18 18.093 167.37h1.7128zm-26.4 99.999c117.74-57.858-98.598-106.85-14.781-2.875l14.781 2.875z" fill="#b3b3b3"/>
  </g>
  <g transform="matrix(.2438 0 0 .2438 261.82 732.66)">
   <path d="m193.32 399.83c29.292-74.746 115.58-232.04-41.587-216.15-76.874-1.2193-36.847 90.406 21.781 48.781 64.037 40.697-111.57 185.18 18.093 167.37h1.7128zm-26.4 99.999c117.74-57.858-98.598-106.85-14.781-2.875l14.781 2.875z" fill="#b3b3b3"/>
  </g>
  <g transform="matrix(.14675 0 0 .14675 350.65 558.31)">
   <path d="m193.32 399.83c115.28-89.709 16.53-309.32-81.118-178.22 130.15 36.239 62.268 158.15 41.664 178.22h39.455zm-26.4 99.999c144.11-101.53-144.4-84.466 0 0z" fill="#b3b3b3"/>
  </g>
  <g transform="matrix(.097273 0 0 .097273 411.6 435.9)">
   <path d="m193.32 399.83c145.46-102.71-38.576-325.59-75.199-157.6 202.49-66.165-89.77 191.68 75.199 157.6zm-26.4 99.999c140.07-92.118-139.85-92.219 0 0z" fill="#b3b3b3"/>
  </g>
  <g transform="matrix(.15575 0 0 .15575 340.28 816.67)">
   <path d="m193.32 399.83c72.558-85.97 82.556-279.17-87.599-200.8-6.3243 77.665 149.24 6.3731 61.599 114.8-35.922 47.606-44.906 103.56 26 85.999zm-26.4 99.999c147.12-103.81-141.68-83.228 0 0z" fill="#b3b3b3"/>
  </g>
 </g>
 <g fill="#666">
  <g transform="matrix(.38774 0 0 .38774 280.89 452.14)">
   <path d="m193.32 399.83c-6.0361-71.102 114.66-140.51 29.465-205.05-36.35-22.473-144.25-19.705-106.02 42.725 32.974-21.133 111.16 8.1526 60.97 62.062-33.583 31.259-63.815 120.88 8.8569 100.27h6.7305zm-26.4 99.999c91.367-14.515-22.203-130.98-35.2-36.4-1.0489 19.31 15.31 37.639 35.2 36.4z" fill="#666"/>
  </g>
  <g transform="matrix(.21468 0 0 .21468 384.9 455.78)">
   <path d="m193.32 399.83c41.613-80.118 106.11-248.87-59.699-212.35-99.932 73.793 122.62 11.655 44.112 112.08-33.147 41.1-71.145 120.56 15.587 100.27zm-26.4 99.999c117.74-57.858-98.598-106.85-14.781-2.875l14.781 2.875z" fill="#666"/>
  </g>
  <g transform="matrix(.20073 0 0 .20073 446.38 135.62)">
   <path d="m193.32 399.83c41.613-80.118 106.11-248.87-59.699-212.35-102.13 75.585 145.78 14.826 33.7 126.35-33.773 46.166-47.129 103.51 26 85.999zm-26.4 99.999c117.74-57.858-98.598-106.85-14.781-2.875l14.781 2.875z" fill="#666"/>
  </g>
  <g transform="matrix(.14675 0 0 .14675 514.94 279.74)">
   <path d="m193.32 399.83c115.3-89.711 16.504-309.33-81.116-178.21 130.11 36.172 62.358 158.26 41.666 178.21h39.45zm-26.4 99.999c144.11-101.53-144.4-84.466 0 0z" fill="#666"/>
  </g>
  <g transform="matrix(.1787 0 0 .1787 332.99 129.49)">
   <path d="m193.32 399.83c36.585-79.922 115.8-248.15-59.699-212.35-101.65 73.303 145.61 15.516 33.7 126.35-33.007 45.806-48.243 103.63 26 85.999zm-26.4 99.999c145.95-63.047-136.03-122.83 0 0z" fill="#666"/>
  </g>
  <g transform="matrix(.1787 0 0 .1787 258.71 83.771)">
   <path d="m193.32 399.83c36.585-79.922 115.8-248.15-59.699-212.35-101.65 73.303 145.61 15.516 33.7 126.35-33.007 45.806-48.243 103.63 26 85.999zm-26.4 99.999c145.95-63.047-136.03-122.83 0 0z" fill="#666"/>
  </g>
  <g transform="matrix(.17824 0 0 .17824 348.75 744)">
   <path d="m193.32 399.83c36.585-79.922 115.8-248.15-59.699-212.35-101.66 73.368 145.61 15.485 33.7 126.35-32.989 45.8-48.268 103.63 26 85.999zm-26.4 99.999c145.95-63.047-136.03-122.83 0 0z" fill="#666"/>
  </g>
  <g transform="matrix(.2438 0 0 .2438 296.11 766.95)">
   <path d="m193.32 399.83c29.292-74.746 115.58-232.04-41.587-216.15-76.872-1.2235-36.85 90.415 21.781 48.781 64.029 40.704-111.58 185.19 18.113 167.37h1.6931zm-26.4 99.999c117.74-57.858-98.598-106.85-14.781-2.875l14.781 2.875z" fill="#666"/>
  </g>
  <g transform="matrix(.16924 0 0 .16924 405.42 774.21)">
   <path d="m193.32 399.83c43.984-75.971 110.4-251.22-59.699-212.35-101.28 74.109 143.66 15.937 33.7 126.35-34.586 52.294-47.585 100.89 26 85.999zm-26.4 99.999c145.95-63.047-136.03-122.83 0 0z" fill="#666"/>
  </g>
 </g>
 <g transform="matrix(.67888 0 0 .67888 356.4 120.91)">
  <path d="m193.32 399.83c-7.8561-45.187 30.57-74.04 50.106-109.23 22.516-38.469 4.0477-96.806-42.861-104.84-26.478-4.875-99.668-9.2441-90.634 27.934 1.9694 33.287 17.194 25.12 43.348 16.746 60.333-5.0142 37.798 68.777 7.7468 92.155-13.85 18.734-40.732 84.96 1.4376 77.232h30.857zm-26.4 99.999c60.581 0.93992 32.031-102.58-19.865-67.679-27.58 18.61-16.123 69.546 19.865 67.679z"/>
 </g>
 <g transform="matrix(.38774 0 0 .38774 338.04 669.29)">
  <path d="m193.32 399.83c-6.0361-71.102 114.66-140.51 29.465-205.05-36.384-22.49-144.27-19.685-106.01 42.769 33.047-21.268 111.11 8.1874 60.957 62.017-33.617 31.292-63.794 120.9 8.9084 100.27h6.679zm-26.4 99.999c91.367-14.515-22.203-130.98-35.2-36.4-1.0489 19.31 15.31 37.639 35.2 36.4z"/>
 </g>
 <g transform="matrix(.22131 0 0 .22131 389.92 331.05)">
  <path d="m193.32 399.83c41.613-80.118 106.11-248.87-59.699-212.35-99.734 72.992 122.55 11.948 44.112 112.08-33.305 41.068-70.887 120.57 15.587 100.27zm-26.4 99.999c117.74-57.858-98.598-106.85-14.781-2.875l14.781 2.875z"/>
 </g>
 <g transform="matrix(.2438 0 0 .2438 307.54 684.09)">
  <path d="m193.32 399.83c29.292-74.746 115.58-232.04-41.587-216.15-76.865-1.2358-36.861 90.444 21.781 48.781 64.005 40.726-111.59 185.24 18.17 167.37h1.6358zm-26.4 99.999c117.74-57.858-98.598-106.85-14.781-2.875l14.781 2.875z"/>
 </g>
 <g transform="matrix(.2438 0 0 .2438 370.4 526.95)">
  <path d="m193.32 399.83c29.292-74.746 115.58-232.04-41.587-216.15-76.865-1.2358-36.861 90.444 21.781 48.781 64.005 40.726-111.59 185.24 18.17 167.37h1.6358zm-26.4 99.999c117.74-57.858-98.598-106.85-14.781-2.875l14.781 2.875z"/>
 </g>
 <g transform="matrix(.2438 0 0 .2438 350.4 59.233)">
  <path d="m193.32 399.83c29.292-74.746 115.58-232.04-41.587-216.15-76.865-1.2358-36.861 90.444 21.781 48.781 64.005 40.726-111.59 185.24 18.17 167.37h1.6358zm-26.4 99.999c117.74-57.858-98.598-106.85-14.781-2.875l14.781 2.875z"/>
 </g>
 <g transform="matrix(.14675 0 0 .14675 423.51 265.45)">
  <path d="m193.32 399.83c115.34-89.719 16.434-309.36-81.109-178.19 130.01 35.993 62.598 158.55 41.671 178.19h39.437zm-26.4 99.999c144.11-101.53-144.4-84.466 0 0z"/>
 </g>
 <g transform="matrix(.14675 0 0 .14675 271.51 154.03)">
  <path d="m193.32 399.83c115.34-89.719 16.434-309.36-81.109-178.19 130.01 35.993 62.598 158.55 41.671 178.19h39.437zm-26.4 99.999c144.11-101.53-144.4-84.466 0 0z"/>
 </g>
 <g transform="matrix(.34917 0 0 .34917 267.83 46.567)">
  <path d="m193.32 399.83c-1.7873-70.641 122.78-159.44 15.387-211.67-47.601-31.103-138.68 24.729-81.63 48.993 92.706-34.387 61.064 72.91 20.294 111.13-21.145 57.249 0.88017 53.697 45.949 51.549zm-26.4 99.999c102.32-26.275-48.677-130.74-32.793-22.275 4.4478 13.618 18.571 22.9 32.793 22.275z"/>
 </g>
 <g transform="matrix(.30064 0 0 .30064 462.96 86.838)">
  <path d="m193.32 399.83c5.7569-69.989 126.35-183.46-1.6344-215.85-57.38-36.668-119.56 57.83-54.415 49.405 144.27-17.461-62.049 153.68 27.815 166.45h28.234zm-26.4 99.999c102.32-26.275-48.677-130.74-32.793-22.275 4.4478 13.618 18.571 22.9 32.793 22.275z"/>
 </g>
 <g transform="matrix(.30677 0 0 .30677 338.02 376.9)">
  <path d="m193.32 399.83c3.8293-72.085 127.37-182.33-1.6344-215.85-57.38-36.286-119.59 57.324-54.415 49.405 144.02-17.348-61.318 152.9 27.356 166.45h28.693zm-26.4 99.999c102.32-26.275-48.677-130.74-32.793-22.275 4.4478 13.618 18.571 22.9 32.793 22.275z"/>
 </g>
 <g transform="matrix(.14675 0 0 .14675 329.23 445.45)">
  <path d="m193.32 399.83c115.34-89.719 16.434-309.36-81.109-178.19 130.01 35.993 62.598 158.55 41.671 178.19h39.437zm-26.4 99.999c144.11-101.53-144.4-84.466 0 0z"/>
 </g>
 <g transform="matrix(.24666 0 0 .24666 478.66 309.53)">
  <path d="m193.32 399.83c29.292-74.746 115.58-232.04-41.587-216.15-76.927-1.1132-36.752 90.157 21.781 48.781 64.246 40.507-111.42 184.76 17.59 167.37h2.2157zm-26.4 99.999c102.32-26.275-48.677-130.74-32.793-22.275 4.4478 13.618 18.571 22.9 32.793 22.275z"/>
 </g>
 <g transform="matrix(.20073 0 0 .20073 533.52 254.19)">
  <path d="m193.32 399.83c41.613-80.118 106.11-248.87-59.699-212.35-102.14 75.615 145.78 14.814 33.7 126.35-33.767 46.163-47.138 103.51 26 85.999zm-26.4 99.999c117.74-57.858-98.598-106.85-14.781-2.875l14.781 2.875z"/>
 </g>
 <g transform="matrix(.17824 0 0 .17824 425.9 432.57)">
  <path d="m193.32 399.83c36.585-79.922 115.8-248.15-59.699-212.35-101.66 73.368 145.61 15.485 33.7 126.35-32.989 45.8-48.268 103.63 26 85.999zm-26.4 99.999c145.95-63.047-136.03-122.83 0 0z"/>
 </g>
 <g transform="matrix(.1787 0 0 .1787 384.42 110.91)">
  <path d="m193.32 399.83c36.585-79.922 115.8-248.15-59.699-212.35-101.65 73.303 145.61 15.516 33.7 126.35-33.007 45.806-48.243 103.63 26 85.999zm-26.4 99.999c145.95-63.047-136.03-122.83 0 0z"/>
 </g>
 <g transform="matrix(.097273 0 0 .097273 375.89 178.76)">
  <path d="m193.32 399.83c145.46-102.71-38.571-325.59-75.199-157.6 202.49-66.165-89.771 191.68 75.199 157.6zm-26.4 99.999c140.07-92.118-139.85-92.219 0 0z"/>
 </g>
 <g transform="matrix(.10627 0 0 .10627 247.79 108.55)">
  <path d="m193.32 399.83c96.96-91.222 39.884-300.12-83.122-185.2 227.25 12.126-92.947 179.38 83.122 185.2zm-26.4 99.999c140.07-92.118-139.85-92.219 0 0z"/>
 </g>
 <g transform="matrix(.097273 0 0 .097273 518.74 218.76)">
  <path d="m193.32 399.83c145.46-102.71-38.571-325.59-75.199-157.6 202.49-66.165-89.771 191.68 75.199 157.6zm-26.4 99.999c140.07-92.118-139.85-92.219 0 0z"/>
 </g>
 <g transform="matrix(.097273 0 0 .097273 308.74 544.47)">
  <path d="m193.32 399.83c145.46-102.71-38.571-325.59-75.199-157.6 202.49-66.165-89.771 191.68 75.199 157.6zm-26.4 99.999c140.07-92.118-139.85-92.219 0 0z"/>
 </g>
 <g transform="matrix(.097273 0 0 .097273 307.31 728.76)">
  <path d="m193.32 399.83c145.46-102.71-38.571-325.59-75.199-157.6 202.49-66.165-89.771 191.68 75.199 157.6zm-26.4 99.999c140.07-92.118-139.85-92.219 0 0z"/>
 </g>
 <g transform="matrix(.097273 0 0 .097273 375.89 847.33)">
  <path d="m193.32 399.83c145.46-102.71-38.571-325.59-75.199-157.6 202.49-66.165-89.771 191.68 75.199 157.6zm-26.4 99.999c140.07-92.118-139.85-92.219 0 0z"/>
 </g>
</svg>
